<?xml version="1.0" standalone="no"?>
<!DOCTYPE svg PUBLIC "-//W3C//DTD SVG 20010904//EN"
 "http://www.w3.org/TR/2001/REC-SVG-20010904/DTD/svg10.dtd">
<svg version="1.0" xmlns="http://www.w3.org/2000/svg"
 width="942.000000pt" height="942.000000pt" viewBox="0 0 942.000000 942.000000"
 preserveAspectRatio="xMidYMid meet">
<metadata>
Created by potrace 1.11, written by Peter Selinger 2001-2013
</metadata>
<g transform="translate(0.000000,942.000000) scale(0.100000,-0.100000)"
fill="#000000" stroke="none">
<path d="M500 9416 c0 -7 52 -38 68 -40 9 -2 19 -11 23 -22 5 -13 8 -14 9 -4
0 12 3 12 14 -2 7 -10 20 -18 28 -18 8 0 35 -16 59 -35 24 -19 52 -35 62 -35
9 0 17 -5 17 -11 0 -8 5 -7 16 2 14 11 15 10 12 -6 -2 -13 4 -20 17 -23 32 -5
67 -24 109 -59 22 -18 44 -33 49 -33 6 0 35 -20 65 -45 54 -45 62 -49 95 -46
11 2 17 -5 17 -19 0 -15 8 -22 31 -27 16 -3 43 -19 59 -34 16 -16 34 -29 40
-29 20 0 70 -34 70 -47 0 -7 6 -13 13 -13 8 0 7 -4 -3 -10 -8 -5 -11 -10 -6
-10 5 0 18 8 28 17 14 13 21 14 30 5 9 -9 8 -12 -7 -12 -18 0 -18 -1 1 -21 10
-11 20 -16 22 -10 6 19 22 12 34 -14 6 -14 19 -25 29 -25 12 0 16 -5 13 -15
-4 -10 3 -18 19 -24 14 -5 31 -18 38 -29 17 -23 51 -42 78 -42 11 0 22 -8 24
-17 4 -16 5 -16 6 0 1 24 26 16 26 -9 0 -13 9 -20 30 -24 16 -3 34 -14 40 -25
15 -30 64 -75 81 -75 8 0 32 -11 52 -25 20 -14 42 -25 49 -25 7 0 13 -7 13
-15 0 -8 5 -15 10 -15 12 0 92 -50 101 -64 4 -5 11 -6 17 -2 5 3 12 -4 15 -15
3 -11 15 -23 26 -26 12 -3 21 -9 21 -14 0 -5 6 -9 14 -9 8 0 38 -16 67 -35 30
-19 57 -35 62 -35 4 0 19 -10 33 -22 56 -51 84 -72 120 -87 23 -10 136 -81
144 -90 8 -9 42 -30 68 -41 12 -5 22 -14 22 -20 0 -5 7 -10 15 -10 8 0 23 -8
33 -18 11 -11 45 -36 78 -58 32 -21 63 -44 67 -51 4 -7 14 -13 20 -13 13 0 28
-10 87 -57 15 -13 33 -23 39 -23 6 0 21 -12 34 -26 39 -45 129 -99 160 -96 16
2 25 8 21 14 -4 6 1 8 16 3 15 -5 20 -4 16 4 -4 6 -2 11 4 11 25 0 190 106
190 121 0 16 -107 103 -196 161 -23 14 -43 30 -45 35 -2 4 -33 28 -69 53 -36
24 -69 48 -75 52 -73 59 -143 108 -152 108 -7 0 -13 4 -13 8 0 4 -14 16 -30
26 -17 9 -40 27 -52 39 -11 12 -18 15 -14 7 5 -9 2 -8 -7 3 -8 9 -18 17 -22
17 -5 0 -33 19 -64 43 -57 42 -77 56 -118 78 -13 7 -23 16 -23 21 0 4 -6 8
-14 8 -8 0 -16 3 -18 8 -3 6 -406 279 -433 292 -24 12 -130 86 -133 93 -2 4
-10 7 -18 7 -8 0 -14 3 -14 8 0 4 -23 20 -50 37 -28 16 -50 33 -50 39 0 5 -3
6 -7 3 -3 -4 -16 1 -27 11 -27 24 -166 113 -166 106 0 -2 -10 4 -22 16 -12 11
-25 20 -28 20 -6 0 -21 11 -66 49 -7 5 -15 7 -18 4 -3 -4 -6 -2 -6 4 0 6 -13
16 -30 23 -16 7 -30 16 -30 20 0 5 -12 13 -27 19 -16 6 -55 29 -88 50 -53 35
-145 94 -223 143 -24 14 -64 17 -324 17 -164 1 -298 -1 -298 -3z"/>
<path d="M1120 9010 c0 -5 5 -10 11 -10 5 0 7 5 4 10 -3 6 -8 10 -11 10 -2 0
-4 -4 -4 -10z"/>
<path d="M9395 8781 c-3 -5 -20 -13 -38 -17 -17 -3 -39 -15 -48 -25 -9 -10
-18 -16 -21 -14 -2 3 -23 -4 -46 -15 -22 -11 -48 -20 -57 -20 -8 0 -15 -4 -15
-10 0 -5 -9 -10 -19 -10 -11 0 -21 -3 -23 -7 -1 -5 -19 -15 -38 -24 -19 -9
-69 -32 -110 -52 -41 -20 -97 -45 -125 -57 -27 -12 -63 -28 -79 -36 -16 -8
-35 -14 -43 -14 -7 0 -13 -4 -13 -10 0 -5 -9 -10 -20 -10 -11 0 -20 -4 -20
-10 0 -5 -6 -10 -12 -10 -7 0 -39 -13 -70 -29 -31 -16 -59 -26 -62 -23 -3 3
-6 -1 -6 -8 0 -7 -3 -11 -6 -7 -4 3 -41 -11 -83 -33 -42 -21 -115 -58 -164
-81 -48 -23 -90 -46 -93 -51 -3 -4 -9 -6 -14 -3 -5 3 -11 1 -15 -5 -4 -6 -11
-8 -16 -5 -5 4 -9 1 -9 -4 0 -6 -6 -11 -14 -11 -8 0 -21 -6 -28 -13 -7 -7 -35
-21 -63 -31 -27 -11 -52 -22 -55 -25 -3 -4 -25 -15 -50 -26 -25 -10 -52 -24
-60 -31 -8 -6 -32 -17 -52 -25 -21 -7 -38 -17 -38 -21 0 -4 -11 -8 -24 -8 -13
0 -29 -7 -36 -15 -7 -9 -15 -13 -18 -11 -3 3 -18 -4 -34 -15 -16 -12 -32 -19
-35 -16 -3 4 -11 1 -19 -6 -36 -32 -45 -38 -54 -32 -6 3 -10 1 -10 -4 0 -6 -7
-11 -15 -11 -9 0 -18 -6 -21 -13 -3 -8 -10 -14 -17 -14 -24 -1 -42 -8 -61 -26
-12 -10 -42 -25 -68 -35 -25 -9 -44 -21 -41 -26 4 -5 -1 -7 -10 -3 -10 3 -17
2 -17 -3 0 -6 -7 -10 -15 -10 -8 0 -15 -4 -15 -9 0 -8 -67 -39 -88 -42 -4 0
-14 -6 -22 -13 -8 -7 -22 -16 -30 -20 -8 -4 -37 -20 -65 -37 -27 -16 -62 -34
-77 -40 -16 -6 -28 -14 -28 -19 0 -4 -13 -10 -29 -13 -16 -3 -35 -12 -42 -19
-8 -7 -25 -19 -39 -26 -57 -29 -75 -43 -72 -54 5 -17 84 -110 89 -104 5 5 63
-53 63 -63 0 -4 13 -14 29 -24 29 -17 31 -17 68 8 21 13 43 29 50 35 7 5 24
10 38 10 14 0 25 4 25 10 0 5 11 12 25 16 14 3 25 11 25 16 0 6 6 8 14 5 8 -3
17 1 20 9 3 8 15 14 26 14 11 0 20 5 20 10 0 6 7 10 16 10 9 0 28 9 44 20 15
11 39 24 54 30 14 5 26 14 26 20 0 5 9 10 19 10 11 0 23 5 26 10 3 6 17 10 30
10 13 0 29 8 34 18 6 9 11 13 11 9 0 -5 12 -2 28 6 15 8 50 25 77 38 28 13 52
27 53 32 2 4 9 7 16 7 6 0 28 11 48 25 20 14 49 25 63 25 14 0 35 9 47 20 12
11 36 23 55 26 18 3 31 10 28 14 -2 4 17 15 43 25 26 10 54 24 63 31 8 8 25
14 37 14 12 0 22 4 22 9 0 5 16 12 36 15 19 4 38 14 41 22 3 7 16 14 28 14 13
0 57 20 99 45 42 24 82 42 89 39 8 -3 20 2 27 11 7 8 20 15 30 15 26 0 80 30
80 44 0 8 13 13 31 14 17 0 37 6 45 12 7 7 20 10 29 6 8 -3 14 -2 12 3 -3 10
62 65 69 58 3 -3 26 5 52 19 26 14 53 22 64 18 11 -3 27 1 36 9 9 8 26 17 37
19 13 2 21 12 23 31 3 25 22 40 22 17 0 -5 21 -9 48 -9 29 1 36 4 20 6 -16 2
-28 9 -28 14 0 5 11 7 25 3 15 -4 25 -2 25 5 0 6 -7 11 -15 11 -8 0 -15 5 -15
10 0 6 7 10 16 10 8 0 12 5 9 10 -3 6 -1 10 4 10 6 0 11 -4 11 -10 0 -5 9 -10
21 -10 11 0 17 5 14 10 -3 6 3 10 14 10 12 0 20 5 19 12 -4 14 75 35 79 21 4
-12 63 -4 63 8 0 5 -7 9 -15 9 -8 0 -15 6 -15 13 0 8 15 12 42 12 24 0 43 6
46 13 2 6 13 12 24 12 14 0 18 5 14 16 -3 8 -2 12 3 9 5 -3 21 0 35 6 l26 12
0 174 c0 157 -6 194 -25 164z m-938 -783 c-3 -8 -6 -5 -6 6 -1 11 2 17 5 13 3
-3 4 -12 1 -19z"/>
<path d="M1738 8613 c7 -3 16 -2 19 1 4 3 -2 6 -13 5 -11 0 -14 -3 -6 -6z"/>
<path d="M1840 8094 c0 -8 9 -14 20 -14 11 0 20 4 20 9 0 5 -9 11 -20 14 -13
3 -20 0 -20 -9z"/>
<path d="M2287 7826 c-5 -13 -2 -19 12 -23 12 -3 17 -11 14 -22 -3 -13 2 -17
23 -16 15 0 29 6 32 13 5 16 -26 41 -50 42 -9 0 -18 5 -20 12 -3 7 -7 5 -11
-6z"/>
<path d="M2718 7549 c-10 -5 -18 -19 -18 -29 0 -15 7 -20 28 -20 15 0 37 -3
50 -6 13 -4 22 -2 22 5 0 6 -8 8 -17 4 -16 -6 -17 -5 -3 11 13 16 12 20 -5 32
-22 16 -34 17 -57 3z"/>
<path d="M1665 7336 c11 -8 25 -16 32 -16 12 0 25 -31 27 -65 1 -24 34 -33 42
-11 3 9 13 16 22 16 13 0 10 6 -10 25 -15 14 -34 25 -42 25 -8 0 -19 6 -23 13
-4 8 -21 17 -38 21 -29 7 -29 7 -10 -8z m95 -86 c0 -5 -2 -10 -4 -10 -3 0 -8
5 -11 10 -3 6 -1 10 4 10 6 0 11 -4 11 -10z"/>
<path d="M2130 7075 c-17 -20 -3 -75 18 -75 10 0 33 -11 52 -24 32 -21 36 -22
50 -7 23 24 23 62 -1 68 -10 3 -19 9 -19 13 0 5 -13 11 -30 15 -16 4 -32 11
-35 16 -9 13 -21 11 -35 -6z"/>
<path d="M2010 6260 c-29 -7 -71 -81 -74 -130 -1 -8 -7 -14 -13 -12 -9 1 -13
-17 -14 -65 0 -38 -2 -79 -5 -93 -2 -14 -6 -36 -8 -50 -3 -14 -12 -56 -21 -95
-9 -38 -21 -104 -27 -145 -6 -41 -14 -77 -17 -80 -3 -3 -7 -32 -9 -65 -2 -33
-10 -85 -19 -115 -9 -30 -15 -66 -15 -80 1 -19 0 -22 -8 -10 -6 10 -8 3 -4
-25 4 -30 3 -36 -5 -25 -8 11 -11 2 -11 -37 0 -29 -4 -53 -8 -53 -5 0 -9 -15
-9 -32 -1 -18 -6 -81 -12 -140 -6 -59 -8 -114 -5 -122 3 -8 2 -21 -2 -28 -9
-13 -9 -17 -20 -90 -6 -41 -4 -49 19 -72 21 -21 36 -26 75 -26 26 0 55 6 64
13 16 12 28 66 28 119 0 15 7 31 17 37 14 8 15 12 5 19 -10 7 -10 14 2 38 22
45 45 124 52 181 4 29 10 51 14 48 4 -3 10 8 13 23 3 15 1 30 -5 33 -6 4 -7 9
0 13 5 3 8 18 6 33 -1 15 2 34 7 43 8 12 9 11 4 -5 -4 -13 -3 -17 4 -10 6 7 6
27 -2 59 -7 32 -8 51 -1 53 5 2 9 24 8 50 -1 27 4 56 12 68 8 11 14 32 14 47
0 16 4 28 9 28 12 0 23 100 34 310 2 36 9 75 16 88 6 12 9 22 5 22 -3 0 -2 6
3 13 18 22 44 113 37 130 -3 10 -1 17 5 17 9 0 9 5 1 20 -6 12 -9 29 -5 39 3
10 -3 29 -14 43 -21 26 -64 33 -121 18z"/>
<path d="M1345 5977 c-16 -34 -33 -65 -38 -69 -6 -3 -11 -68 -11 -150 -1 -119
-4 -147 -18 -168 -10 -13 -18 -34 -18 -46 0 -11 -3 -24 -7 -27 -6 -6 -8 -20
-14 -77 -1 -8 -6 -20 -11 -26 -5 -7 -11 -38 -13 -70 -3 -33 -7 -77 -10 -99 -2
-22 -7 -71 -10 -110 -6 -71 -20 -132 -36 -150 -5 -5 -9 -23 -9 -40 0 -23 6
-35 23 -44 l22 -12 -22 5 c-13 2 -23 1 -23 -3 0 -14 48 -34 61 -26 7 5 10 4 6
-2 -10 -15 17 -23 76 -23 74 1 89 24 88 135 -1 46 -6 96 -12 111 -8 23 -7 31
6 41 10 6 14 16 11 21 -3 5 1 15 9 22 8 6 17 32 21 56 3 24 10 47 16 50 5 3 6
14 3 25 -4 10 1 33 11 51 9 18 20 40 25 49 4 9 7 62 6 118 -1 55 1 101 5 101
5 0 8 17 8 38 0 21 6 46 14 57 37 53 54 93 49 118 -4 18 -1 27 7 27 10 0 10 3
0 15 -7 8 -8 15 -3 15 10 0 7 40 -4 70 -4 8 -5 20 -4 26 3 20 -44 42 -92 45
-25 2 -49 0 -53 -4 -4 -4 -12 -2 -19 3 -8 7 -20 -8 -40 -53z m-25 -181 c0 -3
-4 -8 -10 -11 -5 -3 -10 -1 -10 4 0 6 5 11 10 11 6 0 10 -2 10 -4z m47 -768
c-3 -7 -5 -2 -5 12 0 14 2 19 5 13 2 -7 2 -19 0 -25z"/>
<path d="M1852 5800 c0 -14 2 -19 5 -12 2 6 2 18 0 25 -3 6 -5 1 -5 -13z"/>
<path d="M7840 5784 c0 -8 -4 -14 -10 -14 -5 0 -10 -7 -10 -15 0 -8 -5 -15
-11 -15 -8 0 -9 -43 -5 -151 4 -83 7 -154 8 -157 1 -4 -2 -27 -6 -52 -4 -25
-7 -54 -7 -65 1 -11 1 -67 0 -125 0 -58 5 -118 11 -134 7 -20 8 -32 0 -40 -14
-14 -12 -26 5 -26 8 0 15 -4 15 -10 0 -5 -7 -10 -15 -10 -18 0 -20 -21 -4 -37
7 -7 8 -17 3 -25 -5 -7 -9 -17 -10 -23 -1 -5 -5 -19 -9 -30 -6 -17 -5 -18 5
-5 10 12 11 11 6 -10 -3 -14 -6 -38 -6 -55 -1 -29 -1 -29 -15 -11 -17 23 -20
4 -5 -25 8 -15 7 -23 -5 -35 -8 -9 -13 -20 -10 -25 9 -14 17 -11 9 4 -4 6 -3
9 1 4 14 -12 14 -48 0 -37 -8 7 -11 3 -9 -13 1 -12 3 -24 4 -27 5 -16 1 -310
-5 -361 -5 -44 -4 -60 4 -55 6 4 11 0 11 -9 0 -9 -4 -13 -10 -10 -6 3 -9 -4
-8 -19 1 -13 5 -23 9 -20 4 2 9 -4 11 -14 8 -27 51 -45 93 -38 29 6 37 12 42
36 3 16 9 27 13 25 10 -6 16 13 24 66 4 26 1 41 -9 49 -8 7 -12 17 -8 24 8 12
10 32 17 201 3 61 7 134 10 164 2 30 1 49 -2 43 -4 -5 -6 56 -4 136 1 81 2
159 3 175 0 15 3 27 8 27 4 0 9 98 10 217 1 119 4 221 7 225 3 4 7 53 9 109 3
87 1 109 -16 146 -21 46 -46 64 -59 43 -6 -10 -9 -9 -12 1 -6 19 -68 21 -68 3z
m-63 -1556 c-3 -8 -6 -5 -6 6 -1 11 2 17 5 13 3 -3 4 -12 1 -19z"/>
<path d="M773 5592 c-13 -2 -23 -10 -23 -18 0 -17 -16 -19 -23 -1 -3 7 -6 5
-6 -5 -1 -12 -9 -18 -25 -18 -35 0 -56 -10 -56 -26 0 -8 -3 -14 -8 -14 -12 0
-34 -59 -34 -93 -1 -70 42 -115 100 -104 14 3 26 -2 32 -12 9 -15 11 -14 20 2
6 9 19 17 28 17 24 1 50 22 45 38 -3 6 3 12 13 12 9 0 14 3 11 7 -4 3 -2 12 4
20 6 7 8 13 3 13 -5 0 -3 4 4 9 8 4 16 27 19 50 3 22 10 41 15 41 5 0 6 6 1
13 -4 6 -6 21 -4 31 2 14 -2 17 -14 13 -9 -4 -14 -3 -11 1 6 10 -62 28 -91 24z"/>
<path d="M8373 5528 c-13 -6 -25 -19 -28 -29 -4 -11 -10 -19 -15 -19 -6 0 -8
-20 -7 -44 1 -25 0 -43 -3 -41 -3 2 -5 -46 -5 -105 0 -62 4 -106 9 -103 5 4 6
2 3 -4 -3 -5 1 -41 9 -79 21 -96 24 -123 15 -128 -8 -5 -13 -55 -15 -146 -1
-25 -5 -48 -11 -52 -6 -5 -5 -19 3 -40 6 -17 8 -34 4 -37 -5 -4 -8 -64 -9
-136 0 -71 -3 -178 -8 -237 -7 -107 -7 -108 15 -108 18 0 20 -3 11 -14 -9 -11
-6 -13 16 -12 16 1 34 5 42 10 9 6 12 5 7 -2 -3 -6 -2 -13 3 -16 5 -3 12 1 15
9 3 8 9 14 13 13 21 -5 54 16 59 39 4 15 9 20 14 13 4 -6 6 15 4 47 -10 202
-10 277 -2 348 12 102 13 222 3 259 -6 23 -5 27 6 21 11 -7 12 -6 4 6 -7 9 -9
53 -5 117 3 65 1 102 -5 102 -6 0 -6 3 0 8 6 4 12 16 12 27 1 11 4 34 8 50 6
28 9 105 6 183 -1 18 -5 31 -10 28 -5 -4 -12 7 -16 24 -6 26 -12 31 -46 36
-22 4 -42 11 -45 15 -7 11 -23 10 -51 -3z m124 -1090 c-3 -8 -6 -5 -6 6 -1 11
2 17 5 13 3 -3 4 -12 1 -19z"/>
<path d="M8935 5115 c-16 -13 -26 -24 -22 -25 5 0 -1 -13 -12 -28 -12 -17 -16
-33 -11 -38 5 -5 5 -28 1 -51 -5 -24 -5 -43 -2 -43 3 0 7 -25 8 -56 1 -35 7
-60 15 -65 10 -6 9 -11 -5 -22 -17 -12 -18 -20 -9 -82 13 -97 9 -261 -6 -257
-15 3 -16 -14 -2 -23 6 -3 7 -17 4 -30 -3 -13 2 -39 11 -58 14 -31 21 -35 63
-40 27 -3 50 -1 53 5 4 6 11 8 17 4 6 -3 12 -1 14 6 3 8 9 8 22 1 14 -8 23 -6
37 8 17 17 18 36 17 191 -1 231 0 258 9 258 4 0 9 15 10 33 2 22 0 28 -7 18
-5 -10 -7 1 -3 30 3 24 10 47 14 50 5 3 7 32 4 65 -2 32 -4 67 -5 77 0 9 -8
17 -17 17 -15 0 -16 2 -3 10 12 8 10 10 -10 11 -14 0 -19 3 -12 6 24 10 -23
32 -59 28 -19 -2 -28 -1 -21 2 23 9 12 18 -26 20 -27 2 -45 -4 -67 -22z m-21
-350 c-4 -8 -8 -15 -10 -15 -2 0 -4 7 -4 15 0 8 4 15 10 15 5 0 7 -7 4 -15z"/>
<path d="M8331 5004 c0 -11 3 -14 6 -6 3 7 2 16 -1 19 -3 4 -6 -2 -5 -13z"/>
<path d="M473 4687 c2 -7 9 -12 15 -12 5 0 14 -4 19 -9 5 -5 -2 -7 -15 -3 -16
4 -30 -2 -47 -21 -14 -15 -25 -32 -25 -39 0 -7 -5 -13 -11 -13 -5 0 -7 -4 -4
-10 3 -5 1 -18 -4 -29 -13 -24 -20 -101 -9 -101 4 0 5 -7 2 -15 -5 -11 -2 -13
12 -8 12 4 15 3 10 -5 -7 -12 10 -17 44 -14 8 1 36 -2 63 -7 33 -6 47 -5 47 3
0 6 5 4 10 -6 7 -10 17 -14 32 -10 21 5 21 6 2 14 -15 7 -13 7 9 4 20 -2 33 3
46 20 10 13 22 20 26 16 4 -4 4 3 1 15 -4 12 -2 24 4 28 7 5 8 11 1 19 -7 8
-6 21 4 39 8 15 11 27 7 27 -4 0 1 7 10 14 15 11 16 17 6 38 -13 26 -95 58
-153 58 -17 0 -47 4 -68 9 -28 7 -37 6 -34 -2z"/>
<path d="M1073 4535 c-6 -7 -9 -15 -7 -18 3 -3 -4 -8 -15 -12 -16 -5 -22 -18
-28 -58 -4 -29 -7 -58 -7 -64 1 -7 -3 -10 -8 -7 -6 4 -8 -15 -4 -52 3 -33 6
-69 7 -82 1 -18 9 -23 42 -29 22 -3 48 -14 59 -25 10 -10 18 -15 18 -10 0 4 4
1 9 -7 10 -16 51 -23 51 -9 0 5 10 8 23 6 19 -3 23 2 27 37 3 24 10 39 17 38
7 -2 15 14 18 35 7 38 13 57 35 105 12 24 11 30 -11 54 -59 65 -81 83 -107 84
-15 1 -36 2 -47 3 -11 1 -19 6 -18 12 3 16 -39 15 -54 -1z"/>
<path d="M1630 4357 c0 -10 -4 -15 -10 -12 -5 3 -10 -2 -10 -11 0 -10 -3 -14
-7 -11 -15 16 -33 -18 -33 -63 0 -26 -7 -64 -15 -83 -9 -23 -11 -38 -5 -42 6
-3 10 -12 10 -18 0 -7 -4 -6 -10 3 -5 8 -12 11 -16 7 -10 -10 -13 -67 -3 -61
5 2 15 -6 24 -20 15 -22 53 -36 100 -37 11 0 26 -6 35 -13 25 -21 44 -31 36
-18 -4 7 -2 12 3 12 6 0 11 -5 11 -10 0 -6 16 4 35 23 29 28 35 42 39 88 6 58
30 136 41 131 4 -2 9 -1 13 2 3 3 0 6 -6 6 -7 0 -12 7 -12 15 0 8 -4 15 -9 15
-5 0 -12 10 -15 23 -6 21 -45 56 -69 61 -7 2 -25 8 -40 15 -16 6 -33 8 -39 5
-6 -4 -8 -2 -5 3 4 7 -3 10 -18 9 -17 -1 -25 -7 -25 -19z"/>
<path d="M7399 4164 c-28 -60 -58 -122 -66 -138 -13 -25 -13 -28 0 -23 8 3 18
2 23 -3 5 -5 16 -3 25 3 22 16 59 119 55 153 -1 16 4 46 12 67 8 21 12 40 9
44 -3 3 -29 -44 -58 -103z"/>
<path d="M2145 4190 c-11 -4 -29 -19 -40 -33 -10 -14 -22 -24 -27 -21 -4 3 -8
-10 -8 -28 0 -45 -10 -79 -21 -72 -5 3 -9 -10 -9 -28 0 -25 -3 -29 -10 -18 -8
12 -10 8 -12 -15 -1 -16 -1 -39 -1 -50 0 -11 -5 -23 -11 -27 -6 -5 -1 -8 12
-8 13 0 21 -4 18 -9 -3 -5 4 -11 17 -15 16 -4 18 -8 9 -14 -19 -13 214 -15
238 -2 11 6 20 20 20 30 0 11 3 20 8 20 10 0 9 62 -2 79 -6 9 -5 12 1 8 7 -4
11 2 10 16 0 12 3 30 7 39 5 12 0 25 -18 43 -14 14 -21 25 -16 25 19 0 10 25
-12 37 -92 46 -122 55 -153 43z"/>
<path d="M2570 3930 c13 -9 13 -12 -2 -24 -10 -7 -18 -18 -18 -24 0 -6 -6 -17
-14 -25 -23 -22 -26 -129 -3 -126 31 4 67 -2 79 -13 16 -15 162 -10 201 7 10
4 23 2 31 -4 30 -25 156 -26 156 -1 0 13 -66 40 -95 40 -13 0 -25 5 -27 12 -3
7 -26 12 -59 12 -60 1 -87 12 -70 29 7 7 -3 19 -32 40 -23 17 -44 33 -47 37
-3 4 -20 13 -37 21 -18 8 -33 17 -33 21 0 5 -10 8 -22 8 -19 0 -20 -2 -8 -10z
m296 -172 c4 -6 -8 -8 -30 -5 -20 3 -36 1 -36 -5 0 -5 -4 -6 -10 -3 -6 4 -6
11 2 19 13 13 65 9 74 -6z"/>
<path d="M8980 3888 c0 -4 -15 -8 -32 -9 -36 0 -84 -17 -58 -19 10 -1 9 -4 -5
-9 -17 -7 -20 -17 -20 -79 0 -48 4 -73 12 -76 7 -3 10 -12 7 -21 -3 -8 -10
-12 -15 -9 -5 3 -6 -2 -3 -10 7 -19 20 -21 27 -3 3 6 6 3 6 -8 1 -26 33 -46
52 -34 19 12 69 11 69 -1 0 -5 7 -10 15 -10 8 0 15 5 15 10 0 6 13 10 29 10
23 0 34 8 50 34 21 34 31 77 11 46 -8 -11 -10 -7 -8 17 2 27 5 30 17 20 11 -9
13 -9 8 0 -4 7 -9 42 -12 79 -2 40 -9 71 -17 75 -17 11 -148 8 -148 -3z"/>
<path d="M8368 3833 c7 -3 16 -2 19 1 4 3 -2 6 -13 5 -11 0 -14 -3 -6 -6z"/>
<path d="M8405 3830 c-3 -5 3 -10 12 -13 10 -2 1 -3 -19 -1 -21 2 -38 -1 -38
-6 0 -6 -5 -10 -11 -10 -5 0 -7 5 -4 10 3 6 -1 10 -10 10 -9 0 -14 -4 -11 -9
7 -11 -22 -23 -35 -15 -5 3 -9 -5 -9 -17 0 -12 -3 -19 -7 -16 -11 11 -33 -14
-32 -37 0 -20 1 -21 9 -1 5 11 9 16 9 10 9 -93 21 -187 27 -196 4 -8 9 -7 15
2 6 9 9 10 9 2 0 -6 14 -19 32 -27 38 -20 38 -20 38 0 0 10 6 14 14 11 9 -4
17 1 19 11 3 10 5 5 6 -10 1 -35 21 -37 21 -3 0 14 5 24 12 23 7 -2 14 7 16
20 2 12 7 22 11 22 10 0 25 75 22 107 -1 12 3 32 9 44 9 17 9 20 0 14 -9 -5
-10 -2 -6 13 4 11 2 23 -4 27 -6 3 -8 11 -5 16 3 5 -1 6 -9 3 -9 -3 -18 0 -21
7 -6 15 -52 22 -60 9z"/>
<path d="M7827 3759 c-10 -6 -24 -8 -32 -6 -14 6 -55 -27 -55 -44 0 -5 -12
-15 -27 -22 -33 -14 -53 -32 -53 -45 0 -6 6 -13 13 -15 7 -3 5 -6 -5 -6 -10
-1 -18 -6 -18 -12 0 -6 7 -9 15 -5 8 3 15 1 15 -4 0 -6 -12 -10 -27 -10 -22 0
-25 -2 -13 -10 12 -8 12 -10 -5 -10 -11 -1 -44 -2 -72 -3 -35 -1 -54 2 -58 11
-2 6 -11 12 -19 12 -9 0 -13 6 -10 15 4 10 -7 17 -41 26 -32 8 -42 14 -33 20
9 6 4 9 -14 9 -16 0 -28 3 -28 8 0 4 -18 6 -40 4 -27 -3 -40 -9 -40 -19 0 -13
-3 -13 -15 -3 -12 10 -15 10 -15 -4 0 -9 -9 -21 -20 -28 -11 -7 -20 -20 -21
-28 0 -8 -5 -4 -10 10 -10 24 -11 24 -25 6 -20 -27 -19 -102 2 -110 26 -10 34
-7 27 10 -3 9 6 5 22 -10 15 -14 31 -26 34 -26 80 -7 269 -4 279 3 9 7 18 3
32 -13 11 -13 20 -26 20 -31 0 -4 22 -9 49 -11 27 -1 47 0 44 5 -2 4 7 7 21 7
14 0 28 5 31 10 9 15 105 13 105 -2 0 -9 4 -8 10 2 8 13 10 13 10 -2 0 -11 6
-15 20 -11 11 3 20 10 20 15 0 5 -4 6 -10 3 -5 -3 -10 -1 -10 4 0 10 21 16 42
12 4 0 5 6 2 14 -4 8 -1 15 6 15 6 0 9 4 5 9 -3 5 -1 12 3 15 10 6 8 48 -3 65
-3 6 0 11 7 11 9 0 9 3 -2 10 -13 9 -13 10 0 10 13 0 13 1 0 10 -13 9 -13 10
0 10 13 0 13 1 0 10 -8 5 -10 10 -5 10 18 0 9 49 -13 73 -12 13 -22 29 -22 35
0 15 -48 15 -73 1z"/>
<path d="M2945 3680 c3 -5 8 -10 11 -10 2 0 4 5 4 10 0 6 -5 10 -11 10 -5 0
-7 -4 -4 -10z"/>
<path d="M172 3659 c-13 -5 -28 -7 -32 -4 -13 8 -102 -18 -122 -35 -17 -13
-18 -62 -18 -747 l0 -733 23 14 c12 7 34 16 49 20 16 3 27 12 25 19 -1 8 10
11 31 10 18 0 31 1 28 4 -9 9 27 32 50 33 31 0 92 59 74 70 -11 7 -10 11 3 24
11 11 15 32 14 71 -1 30 2 56 8 58 5 2 8 23 6 46 -1 24 1 41 6 38 4 -3 8 10 9
29 0 19 -3 34 -7 34 -4 0 -1 17 6 38 8 20 17 60 21 87 5 36 8 45 13 31 7 -17
8 -18 14 -3 3 9 2 19 -4 23 -6 4 -6 11 2 20 6 8 9 17 6 21 -4 3 -2 15 4 26 8
14 8 18 0 13 -6 -4 -11 -2 -11 3 0 6 8 11 17 11 15 0 14 2 -3 15 -17 13 -17
14 -2 15 11 0 15 5 12 15 -4 8 -1 15 5 15 6 0 8 6 5 14 -3 8 4 35 15 61 11 25
18 52 15 60 -4 8 -1 15 5 15 6 0 8 7 5 15 -7 17 14 85 26 85 5 0 10 10 12 23
2 12 9 21 16 19 6 -1 12 2 12 8 0 6 6 9 12 8 8 -2 12 7 10 23 -3 26 -2 26 46
21 31 -2 52 0 56 7 9 14 36 15 36 1 0 -5 -7 -7 -15 -4 -10 4 -15 0 -15 -11 0
-12 5 -15 17 -11 15 6 53 -23 53 -41 0 -5 10 -19 23 -33 17 -20 23 -39 25 -90
3 -79 -16 -251 -30 -267 -6 -7 -6 -18 0 -28 5 -9 7 -29 4 -43 -5 -24 -6 -25
-13 -7 -6 14 -8 3 -8 -35 0 -30 -3 -80 -7 -110 -4 -30 -7 -79 -7 -107 0 -29
-4 -53 -9 -53 -4 0 -8 -19 -9 -42 0 -33 -2 -38 -9 -23 -6 15 -9 4 -10 -40 -2
-33 -2 -63 -1 -67 0 -5 -5 -8 -12 -8 -8 0 -7 -4 3 -10 13 -9 13 -10 0 -10 -12
0 -13 -2 -1 -9 7 -5 14 -20 14 -34 0 -18 9 -30 38 -45 26 -14 39 -17 39 -9 0
8 3 7 9 -2 5 -8 16 -11 25 -8 9 4 16 2 16 -3 0 -5 6 -7 13 -4 7 2 30 -2 50
-11 20 -8 60 -15 89 -15 29 0 85 -6 125 -14 53 -10 73 -10 77 -2 3 7 7 8 13 1
4 -6 27 -10 50 -10 24 0 43 -3 43 -6 0 -3 29 -5 65 -5 36 1 65 -3 65 -8 0 -4
15 -6 34 -4 19 2 32 0 29 -5 -3 -5 14 -8 40 -6 25 2 43 1 41 -2 -5 -9 67 -20
138 -22 45 -1 55 -4 46 -14 -5 -7 -15 -10 -21 -6 -5 3 -7 1 -4 -4 4 -7 24 -2
54 13 25 13 62 24 82 24 25 0 32 3 24 11 -7 7 -4 25 13 60 13 27 24 55 24 63
0 8 7 22 16 31 12 11 15 27 11 53 -3 20 -3 31 0 25 8 -21 26 -15 20 7 -3 11
-2 18 3 15 10 -6 33 22 27 32 -3 4 9 9 25 10 17 1 35 7 42 12 7 6 34 7 71 2
33 -5 113 -8 178 -7 96 1 121 4 130 17 7 9 18 14 26 11 10 -3 12 0 8 12 -5 12
0 16 18 16 19 0 25 5 25 21 0 11 4 18 9 15 5 -3 11 1 15 9 3 8 15 15 26 15 17
0 19 -3 10 -19 -16 -31 -12 -38 7 -11 10 14 16 30 15 35 -2 6 -1 7 3 3 4 -4
30 12 58 35 29 23 69 53 90 66 35 21 37 25 23 40 -9 10 -16 22 -16 28 0 6 -15
10 -32 9 -18 -2 -39 2 -47 8 -8 6 -16 10 -18 9 -1 -2 -14 -3 -28 -3 -18 0 -25
5 -25 20 0 11 -4 20 -8 20 -5 0 -8 14 -7 30 1 21 -3 30 -14 30 -15 0 25 25 79
50 20 9 27 8 35 -4 7 -9 20 -13 33 -9 17 4 22 1 22 -13 0 -10 17 7 43 43 66
94 145 179 224 240 40 30 70 59 67 64 -3 5 1 7 8 4 7 -2 27 7 43 21 26 22 27
25 7 19 -13 -4 -22 -2 -22 5 0 6 -5 8 -11 4 -8 -4 -7 -9 2 -15 11 -7 10 -9 -3
-9 -9 0 -20 5 -24 11 -3 6 -17 8 -29 5 -13 -3 -26 -2 -29 2 -3 5 -31 10 -62
11 -32 1 -65 6 -75 12 -12 6 -20 5 -24 -1 -4 -6 -12 -7 -18 -3 -7 4 -36 8 -65
8 -30 1 -57 6 -61 13 -4 6 -20 11 -36 11 -35 0 -145 16 -225 32 -30 6 -83 12
-117 12 -35 0 -63 4 -63 9 0 4 -21 8 -47 8 -27 0 -70 7 -97 15 -27 8 -78 17
-115 20 -36 3 -89 10 -118 15 -28 6 -68 12 -90 14 -21 1 -37 7 -36 13 1 6 -27
9 -70 8 -40 -1 -77 2 -83 6 -15 12 -85 14 -109 4 -18 -8 -18 -7 -7 7 12 15 8
17 -30 23 -24 3 -56 5 -73 5 -50 -1 -115 12 -115 22 0 6 -7 7 -16 4 -9 -3 -20
-3 -26 0 -17 11 -87 13 -93 4 -9 -14 -37 1 -31 17 5 11 2 11 -15 2 -15 -8 -19
-8 -15 0 5 7 -7 9 -35 7 -27 -3 -37 -1 -29 4 19 12 5 16 -75 25 -32 3 -62 10
-65 15 -3 5 -36 10 -73 11 -53 2 -67 5 -68 18 0 11 -2 12 -6 3 -4 -10 -8 -10
-20 -1 -12 10 -16 10 -24 -2 -6 -10 -9 -10 -9 -1 0 7 -13 12 -29 12 -17 0 -33
5 -36 10 -4 6 -15 8 -26 5 -13 -4 -19 -2 -19 9 0 12 -11 16 -50 16 -27 0 -50
5 -50 10 0 6 8 10 18 11 14 0 14 2 -3 8 -11 5 -25 6 -32 4 -7 -3 -29 1 -49 7
-30 10 -38 10 -45 -1 -6 -10 -9 -11 -9 -1 0 15 -112 16 -148 1z m421 -346 c-7
-2 -19 -2 -25 0 -7 3 -2 5 12 5 14 0 19 -2 13 -5z m152 -483 c3 -5 1 -10 -4
-10 -6 0 -11 5 -11 10 0 6 2 10 4 10 3 0 8 -4 11 -10z m1795 -70 c0 -5 -2 -10
-4 -10 -3 0 -8 5 -11 10 -3 6 -1 10 4 10 6 0 11 -4 11 -10z"/>
<path d="M8960 3600 c0 -5 4 -10 9 -10 6 0 13 5 16 10 3 6 -1 10 -9 10 -9 0
-16 -4 -16 -10z"/>
<path d="M6825 3572 c-63 -30 -146 -62 -164 -63 -10 0 -12 -2 -3 -6 6 -2 12
-11 12 -19 0 -12 26 -20 53 -15 4 1 18 -5 30 -14 26 -18 83 -19 157 -1 45 10
57 17 65 40 12 35 -3 59 -41 66 -15 3 -27 10 -26 15 4 18 -42 16 -83 -3z"/>
<path d="M1107 3493 c-4 -3 -7 -11 -7 -17 0 -6 5 -5 12 2 6 6 9 14 7 17 -3 3
-9 2 -12 -2z"/>
<path d="M3760 3480 c0 -5 5 -10 11 -10 5 0 7 5 4 10 -3 6 -8 10 -11 10 -2 0
-4 -4 -4 -10z"/>
<path d="M6618 3483 c7 -3 16 -2 19 1 4 3 -2 6 -13 5 -11 0 -14 -3 -6 -6z"/>
<path d="M4035 3380 c3 -5 8 -10 11 -10 2 0 4 5 4 10 0 6 -5 10 -11 10 -5 0
-7 -4 -4 -10z"/>
<path d="M4083 3366 c4 -10 1 -13 -8 -10 -7 3 -16 -3 -20 -15 -7 -24 2 -61 16
-61 5 0 9 -7 9 -15 0 -8 13 -16 33 -19 109 -17 134 -21 147 -21 31 -2 60 -17
60 -31 0 -8 9 -14 19 -14 11 0 23 -4 26 -10 11 -18 35 -11 35 10 0 17 7 20 40
20 22 0 40 -4 40 -9 0 -6 11 -9 24 -8 14 1 24 -2 23 -8 -1 -5 -13 -10 -26 -10
-14 -1 -26 -6 -29 -13 -2 -8 8 -12 32 -12 19 0 38 -5 41 -11 5 -6 16 -4 33 7
15 10 27 13 29 7 7 -21 32 -48 33 -35 0 9 14 12 44 11 26 -2 51 3 61 11 13 11
18 10 30 -6 8 -10 15 -21 15 -24 0 -3 25 -5 55 -5 30 0 51 2 45 3 -21 7 3 22
36 22 19 0 34 5 34 11 0 6 28 9 78 7 42 -1 114 -2 160 0 l82 2 0 30 c0 26 3
29 18 22 9 -5 33 -12 54 -16 44 -8 68 11 68 55 0 22 5 29 20 29 17 0 20 7 20
40 0 25 -5 41 -12 42 -7 0 5 4 27 8 37 7 36 7 -10 4 -27 -2 -90 -8 -140 -14
-132 -16 -688 -18 -810 -3 -131 17 -384 42 -414 43 -16 0 -21 -4 -18 -14z
m1037 -196 c0 -5 -4 -10 -9 -10 -6 0 -13 5 -16 10 -3 6 1 10 9 10 9 0 16 -4
16 -10z"/>
<path d="M5620 3360 c-21 -7 -19 -8 18 -9 23 -1 42 4 42 9 0 12 -24 12 -60 0z"/>
<path d="M460 3150 c0 -5 5 -10 10 -10 6 0 10 5 10 10 0 6 -4 10 -10 10 -5 0
-10 -4 -10 -10z"/>
<path d="M5420 3150 c0 -5 7 -10 16 -10 8 0 12 5 9 10 -3 6 -10 10 -16 10 -5
0 -9 -4 -9 -10z"/>
<path d="M8640 3120 c0 -16 -7 -20 -37 -21 -21 -1 -30 -3 -20 -6 9 -2 15 -9
11 -14 -3 -5 -10 -7 -15 -4 -5 4 -9 1 -9 -4 0 -6 -7 -11 -15 -11 -8 0 -15 -5
-15 -11 0 -5 -4 -7 -10 -4 -5 3 -10 -1 -10 -9 0 -9 5 -16 11 -16 7 0 9 -9 5
-24 -4 -17 0 -28 17 -40 16 -13 23 -28 23 -57 2 -49 11 -59 72 -80 26 -9 46
-22 45 -28 -2 -6 3 -11 11 -11 8 0 17 13 21 29 6 29 33 48 75 53 20 2 25 9 25
31 1 16 7 32 14 37 8 4 11 12 7 18 -7 11 21 25 35 16 5 -3 9 2 9 10 0 9 5 16
10 16 6 0 10 -7 10 -16 0 -10 4 -12 13 -7 6 4 36 6 65 4 31 -2 52 1 52 8 0 9
21 8 59 -4 9 -3 25 1 35 8 17 12 17 15 2 29 -9 9 -16 19 -16 23 0 8 -27 35
-35 35 -3 0 -18 9 -33 19 -34 24 -116 37 -172 28 -14 -2 -50 -8 -80 -12 -30
-4 -57 -11 -60 -15 -8 -11 -81 -20 -75 -9 4 5 0 9 -8 9 -10 0 -13 8 -9 25 2
14 2 25 -2 25 -3 0 -6 -9 -6 -20z m165 -90 c3 -5 -3 -10 -14 -10 -12 0 -21 5
-21 10 0 6 6 10 14 10 8 0 18 -4 21 -10z m35 0 c0 -5 -5 -10 -11 -10 -5 0 -7
5 -4 10 3 6 8 10 11 10 2 0 4 -4 4 -10z m-62 -17 c17 -4 22 -11 19 -24 -3 -11
-2 -17 2 -15 4 3 13 1 21 -4 10 -6 3 -10 -24 -16 -26 -4 -34 -9 -25 -15 11 -6
10 -9 -3 -14 -21 -8 -41 3 -32 17 5 7 1 9 -9 5 -22 -8 -22 9 1 22 15 9 15 12
2 21 -13 9 -13 11 0 20 18 11 18 12 48 3z"/>
<path d="M4976 3115 c-4 -11 2 -15 24 -15 22 0 28 4 24 15 -4 8 -14 15 -24 15
-10 0 -20 -7 -24 -15z"/>
<path d="M6270 2927 c59 -61 110 -155 110 -203 0 -39 4 -45 50 -79 66 -49 251
-244 300 -318 101 -150 87 -288 -36 -373 -48 -33 -57 -36 -130 -36 -52 -1
-106 6 -157 20 -97 28 -106 27 -158 -3 -57 -32 -86 -31 -141 5 -59 39 -124
128 -169 232 -34 76 -39 83 -67 85 -39 3 -44 19 76 -227 122 -250 132 -275
132 -314 0 -40 -34 -93 -80 -124 l-35 -24 40 7 c51 9 47 9 68 0 10 -4 38 -5
62 -2 27 3 45 0 45 -6 0 -6 19 -7 50 -3 28 4 50 3 50 -2 0 -5 44 -10 97 -11
53 -1 100 -4 104 -6 3 -3 58 -8 120 -11 63 -4 135 -12 162 -19 26 -7 47 -8 47
-4 0 10 102 -1 114 -12 6 -5 15 -9 20 -9 6 0 4 5 -4 10 -9 6 -10 10 -3 10 6 0
15 -4 18 -10 8 -13 48 -13 62 1 10 10 32 16 60 18 7 1 10 7 7 15 -3 8 3 19 13
25 17 9 20 23 22 118 4 207 13 357 31 561 6 62 7 118 4 124 -4 6 -1 14 5 18
13 7 51 140 51 177 0 13 5 22 12 20 6 -1 14 6 16 17 5 25 61 78 73 70 6 -3 19
4 30 17 14 17 19 18 19 6 0 -10 6 -13 18 -10 43 11 133 -137 138 -227 2 -30 4
-57 5 -60 1 -3 1 -12 0 -22 -1 -9 3 -19 9 -23 8 -5 8 -11 -1 -21 -9 -11 -8
-14 7 -15 18 0 18 -1 -1 -9 -11 -5 -14 -9 -7 -9 6 -1 12 -8 12 -16 0 -8 -6
-15 -12 -15 -7 0 -5 -5 5 -11 9 -5 17 -15 17 -21 0 -7 -5 -6 -15 2 -18 15 -20
-1 -3 -18 9 -9 9 -18 0 -37 -16 -34 -15 -40 3 -25 13 11 14 8 9 -21 -4 -19
-10 -38 -15 -43 -4 -5 -2 -18 4 -29 9 -15 9 -21 0 -24 -7 -3 -13 -16 -13 -29
0 -18 4 -23 13 -18 7 5 7 1 -2 -10 -13 -15 -13 -19 0 -27 8 -5 9 -9 3 -9 -7 0
-12 -27 -13 -72 -1 -40 -2 -83 -2 -95 -1 -13 -5 -23 -11 -23 -5 0 -9 -31 -8
-72 1 -40 -1 -102 -3 -138 -2 -36 1 -74 7 -85 5 -11 12 -31 14 -44 2 -14 12
-31 22 -38 11 -8 17 -20 14 -27 -3 -8 2 -28 11 -46 9 -18 14 -43 11 -58 -3
-15 -2 -33 3 -41 6 -9 4 -19 -5 -28 -8 -8 -14 -29 -14 -47 0 -17 -5 -37 -12
-44 -7 -7 -8 -12 -4 -12 5 0 3 -7 -4 -15 -10 -12 -9 -16 4 -21 9 -3 13 -10 10
-16 -3 -5 -13 -7 -21 -4 -8 3 -11 1 -8 -5 4 -5 0 -25 -9 -44 -10 -21 -14 -44
-10 -60 4 -15 2 -25 -5 -25 -6 0 -11 -12 -11 -26 0 -16 -4 -23 -11 -18 -8 5
-10 -4 -7 -30 3 -27 0 -36 -11 -36 -12 0 -12 -3 -3 -12 16 -16 15 -28 -3 -28
-8 0 -15 -4 -15 -10 0 -5 5 -10 10 -10 13 0 13 -37 1 -42 -5 -2 -12 -22 -14
-45 -2 -27 0 -40 6 -36 7 4 8 -1 2 -13 -4 -10 -7 -27 -7 -36 1 -23 43 -79 54
-72 5 3 7 2 6 -3 -4 -14 13 -53 23 -53 5 0 9 -6 9 -14 0 -19 30 -43 31 -25 0
8 4 5 8 -6 5 -12 4 -26 -3 -34 -8 -11 -8 -13 2 -7 6 4 18 4 25 -1 29 -19 77
-31 77 -19 0 7 3 7 8 -2 5 -7 30 -14 57 -17 27 -3 52 -10 55 -16 4 -6 26 -8
49 -6 23 2 44 0 47 -5 8 -12 109 1 136 18 7 4 8 3 4 -4 -9 -15 -1 -15 25 -2
10 6 19 18 19 28 0 12 3 13 8 5 6 -10 14 -9 34 1 19 10 29 11 37 3 8 -8 11 -8
11 1 0 16 25 15 42 -1 18 -18 177 -40 235 -33 122 16 164 15 199 -5 19 -10 42
-19 51 -19 12 0 13 -3 4 -14 -10 -11 -8 -16 9 -21 15 -5 20 -13 17 -25 -3 -13
-1 -17 10 -13 12 5 14 1 8 -17 -5 -15 -4 -20 3 -16 13 8 58 -36 67 -65 6 -17
9 -18 16 -8 6 11 9 10 15 -4 3 -9 15 -17 25 -17 12 0 19 -7 19 -19 0 -10 7
-22 16 -25 9 -3 130 -6 270 -6 l254 0 0 519 c0 406 -3 520 -12 524 -10 4 -10
6 0 6 6 1 12 6 12 12 0 6 -9 9 -20 6 -14 -4 -20 0 -20 11 0 15 -2 15 -10 2 -7
-10 -10 22 -10 100 0 127 -6 305 -10 305 -1 0 -3 63 -4 140 -2 170 -18 255
-47 255 -11 0 -18 4 -15 9 3 5 -6 12 -20 15 -17 5 -24 12 -22 24 5 23 -34 42
-88 42 -23 0 -46 5 -49 10 -3 6 0 10 7 10 9 0 9 3 -2 10 -13 9 -13 10 0 11 8
0 0 7 -17 15 -18 8 -33 19 -33 24 0 6 -3 9 -7 9 -21 -3 -31 3 -38 24 -6 19 -8
20 -12 4 -3 -14 -8 -15 -18 -7 -9 8 -14 6 -19 -5 -6 -17 -20 -16 -78 7 -24 9
-28 16 -28 47 0 24 8 45 21 60 18 19 19 25 8 32 -11 7 -11 9 -1 9 7 0 10 5 6
11 -3 6 -1 15 7 20 10 6 5 11 -16 19 l-30 12 43 21 c49 25 55 51 18 87 l-25
23 -39 -21 c-33 -17 -41 -18 -57 -6 -10 8 -13 14 -6 14 7 0 9 5 5 12 -4 7 -9
26 -10 43 -1 16 0 23 2 15 5 -17 54 -43 54 -29 0 5 -4 9 -10 9 -5 0 -10 13
-10 29 0 32 -15 50 -23 29 -3 -8 -6 -6 -6 5 -1 19 -16 23 -24 7 -3 -6 -4 -5
-3 2 1 7 12 14 24 16 31 5 27 19 -5 25 -135 28 -154 29 -169 9 -19 -28 -90
-39 -113 -18 -10 9 -21 13 -24 10 -4 -4 -9 1 -13 10 -3 9 -17 16 -29 16 -13 0
-27 5 -30 11 -4 6 -13 8 -21 5 -8 -3 -14 -2 -14 3 0 4 -17 16 -37 27 -21 10
-42 25 -46 32 -4 6 -19 12 -33 12 -14 0 -32 7 -40 15 -9 8 -30 15 -47 15 -21
0 -28 3 -19 9 10 6 4 10 -18 14 -17 4 -29 11 -26 16 3 5 -3 11 -14 14 -11 3
-20 0 -20 -6 0 -7 -6 -1 -13 13 -8 16 -23 26 -41 28 -20 3 -26 8 -22 18 5 12
1 14 -16 8 -16 -5 -20 -3 -15 9 3 9 -1 18 -9 21 -24 9 -31 7 -14 -4 10 -7 11
-10 2 -10 -7 0 -15 6 -18 14 -3 8 -19 18 -36 21 -20 5 -26 10 -18 15 15 10
-11 20 -51 20 -17 0 -28 4 -25 9 7 10 -24 25 -33 16 -3 -3 1 -10 9 -15 9 -6
10 -10 3 -10 -6 0 -18 6 -25 13 -17 16 -132 22 -122 5 5 -8 0 -9 -17 -5 -34 9
-134 -4 -117 -15 8 -5 -21 -8 -74 -6 -47 2 -85 1 -83 -2 5 -7 -47 -9 -300 -9
-110 0 -211 0 -225 0 -14 -1 -74 0 -135 1 -60 1 -152 2 -203 2 -50 1 -92 4
-92 9 0 4 -5 7 -11 7 -6 0 -8 -7 -5 -16 5 -13 4 -14 -7 -6 -8 7 -17 9 -20 5
-4 -3 -7 -2 -7 4 0 6 -8 9 -19 6 -11 -3 -21 2 -24 11 -3 8 -16 20 -29 27 -17
9 -14 3 12 -24z m1247 -1459 c-3 -7 -5 -2 -5 12 0 14 2 19 5 13 2 -7 2 -19 0
-25z m369 -79 c3 -5 14 -9 25 -9 10 0 31 -13 46 -28 43 -44 92 -74 109 -68 8
3 12 2 9 -4 -3 -6 1 -10 9 -10 9 0 16 -4 16 -10 0 -5 9 -10 19 -10 25 0 32
-37 12 -68 -15 -25 -4 -87 16 -87 7 0 17 -5 23 -11 7 -7 2 -14 -17 -23 -16 -7
-35 -17 -44 -22 -9 -4 -19 -5 -23 -2 -3 3 -18 7 -34 8 -15 1 -39 5 -52 9 -20
6 -22 5 -10 -4 12 -9 8 -11 -17 -6 -19 3 -33 1 -33 -4 0 -6 -5 -10 -11 -10 -5
0 -7 6 -3 13 6 8 3 8 -9 -1 -9 -8 -20 -11 -25 -8 -5 3 -35 8 -67 11 -32 3 -62
10 -65 15 -4 6 -14 8 -23 5 -9 -4 -24 2 -36 14 -12 12 -16 21 -10 21 8 0 8 4
-1 15 -6 8 -9 18 -6 24 4 5 0 16 -8 24 -25 24 -30 81 -11 121 10 20 21 36 26
36 5 0 9 6 9 14 0 8 14 17 31 21 17 4 33 13 36 20 2 8 10 12 18 9 7 -3 15 1
18 9 5 15 73 12 83 -4z m301 -335 c-3 -3 -12 -4 -19 -1 -8 3 -5 6 6 6 11 1 17
-2 13 -5z"/>
<path d="M3299 2359 c31 -31 35 -39 32 -71 -1 -10 3 -18 8 -18 6 0 11 14 11
31 0 22 -9 41 -30 60 -40 39 -60 37 -21 -2z"/>
<path d="M3310 2215 c0 -7 38 -26 61 -30 31 -6 22 10 -14 23 -36 13 -47 15
-47 7z"/>
<path d="M2531 2201 c-8 -5 -23 -8 -33 -6 -10 2 -18 1 -18 -3 0 -4 -28 -7 -61
-7 -42 0 -63 -4 -66 -13 -3 -7 -11 -11 -19 -8 -7 3 -18 -2 -24 -10 -7 -8 -19
-14 -26 -14 -8 0 -14 -5 -14 -11 0 -5 -4 -8 -9 -5 -12 8 -61 -17 -61 -31 0 -7
-7 -10 -17 -6 -11 4 -14 3 -9 -5 4 -8 0 -12 -12 -12 -22 0 -67 -45 -67 -68 0
-9 -6 -17 -13 -17 -7 0 -16 -5 -20 -12 -4 -6 -20 -15 -35 -18 -28 -7 -28 -8
-8 -26 11 -11 24 -19 28 -19 14 0 40 -35 48 -66 8 -27 9 -28 13 -6 3 18 6 21
17 12 11 -9 16 -4 24 27 20 70 213 193 336 213 32 5 60 11 62 14 2 2 3 27 1
55 -2 40 -6 49 -17 42z m-391 -166 c-13 -14 -26 -22 -29 -19 -3 3 5 14 18 25
33 27 39 24 11 -6z"/>
<path d="M3112 1910 c-23 -17 -46 -30 -50 -30 -9 0 -37 -43 -31 -50 2 -3 8 -4
14 -2 5 2 1 -5 -8 -16 -11 -12 -14 -23 -9 -26 6 -3 13 0 15 6 3 7 6 3 6 -9 1
-14 -4 -21 -11 -18 -10 4 -13 -16 -14 -77 -1 -73 -32 -220 -52 -253 -4 -5 -7
-12 -7 -15 -2 -15 -56 -108 -74 -127 -12 -12 -21 -35 -21 -51 0 -16 -6 -34
-13 -40 -14 -12 -57 -5 -57 9 0 5 -15 9 -34 9 -39 0 -96 18 -96 31 0 4 -17 11
-37 14 -21 4 -42 8 -48 10 -5 1 -13 2 -16 1 -4 0 -15 6 -25 15 -11 9 -29 20
-41 23 -13 4 -23 11 -23 16 0 4 -9 6 -20 3 -11 -3 -20 -1 -20 5 0 6 -9 8 -20
5 -12 -3 -20 0 -20 7 0 9 -4 9 -12 3 -7 -6 -63 -10 -124 -9 -77 1 -110 -2
-107 -10 2 -6 -11 -11 -32 -12 -20 -1 -43 -8 -51 -17 -18 -17 -40 -20 -49 -5
-9 15 -25 12 -25 -5 0 -8 -8 -15 -17 -15 -15 0 -14 -2 3 -16 18 -14 15 -15
-33 -11 -29 2 -56 0 -62 -6 -7 -7 -20 -6 -41 3 -26 11 -33 10 -50 -5 -10 -9
-23 -14 -29 -11 -5 4 -26 -3 -45 -14 -20 -11 -36 -16 -37 -12 -1 4 -5 -8 -9
-27 -6 -25 -4 -38 6 -48 8 -8 14 -21 14 -29 0 -8 3 -14 8 -14 4 0 13 -14 21
-30 19 -44 140 -163 202 -199 39 -23 203 -103 214 -105 6 -1 24 -6 40 -13 115
-42 257 -49 385 -19 111 27 116 28 105 18 -5 -5 -59 -19 -119 -32 -179 -37
-319 -20 -496 62 -108 49 -187 105 -295 209 l-115 110 -32 -17 c-25 -13 -48
-15 -105 -11 -40 3 -73 2 -73 -1 0 -9 -186 -7 -265 2 -60 7 -135 34 -135 49 0
4 -8 7 -19 7 -24 0 -43 23 -35 44 3 9 1 16 -5 16 -14 0 -15 37 -1 45 6 3 13
-1 16 -9 8 -22 24 -20 24 2 0 31 23 52 60 55 19 1 37 5 40 8 10 11 62 20 55 9
-4 -6 5 -10 23 -10 15 0 71 -9 122 -20 51 -11 114 -20 139 -20 25 0 53 -4 61
-10 9 -5 19 -5 27 1 14 12 36 2 28 -12 -4 -5 -1 -9 4 -9 6 0 11 8 11 18 0 14
2 15 10 2 14 -22 12 -11 -9 45 -15 41 -36 141 -44 214 -2 16 -20 21 -92 27
-112 9 -125 11 -132 17 -9 9 -43 9 -43 0 0 -5 -38 -8 -85 -8 -47 0 -85 -3 -85
-6 0 -4 -21 -9 -47 -13 -25 -3 -54 -12 -62 -19 -26 -22 -99 -47 -137 -47 -21
0 -33 -4 -29 -10 3 -5 1 -10 -4 -10 -36 0 -51 -16 -52 -54 0 -27 -2 -28 -10
-11 -7 16 -8 14 -4 -10 3 -22 -2 -37 -20 -57 -13 -16 -29 -28 -35 -28 -5 0
-10 -7 -10 -15 0 -8 -7 -15 -15 -15 -8 0 -15 -6 -15 -13 0 -9 -14 -14 -42 -15
-24 0 -63 -3 -88 -5 -25 -3 -50 -1 -57 5 -7 5 -17 7 -24 3 -8 -6 -7 -10 2 -16
11 -7 10 -9 -3 -9 -9 0 -19 4 -22 9 -3 5 -30 15 -58 21 -29 7 -62 19 -73 26
-11 8 -37 14 -58 14 -21 0 -36 4 -33 9 6 9 -64 21 -125 21 -21 0 -49 4 -63 10
l-26 10 0 -268 0 -267 26 -12 c16 -7 44 -10 70 -6 31 4 44 2 44 -6 0 -8 14
-11 44 -8 33 3 43 0 39 -9 -4 -10 2 -11 25 -5 16 5 35 5 43 0 8 -5 35 -9 62
-9 26 0 47 -4 47 -9 0 -7 112 -23 175 -26 6 0 13 -4 17 -9 4 -6 13 -4 22 3 12
10 16 11 16 1 0 -7 7 -10 14 -7 10 4 13 1 10 -8 -5 -12 0 -12 28 -5 40 12 40
12 34 2 -3 -4 7 -8 22 -8 98 -2 123 -5 116 -15 -5 -8 8 -9 45 -4 35 5 51 3 51
-4 0 -7 9 -9 24 -5 13 3 33 1 44 -5 13 -7 22 -7 29 0 8 8 13 8 17 0 4 -5 13
-8 21 -4 8 3 15 1 15 -4 0 -5 14 -7 31 -5 24 3 30 1 24 -8 -5 -9 -2 -10 14 -5
11 3 26 3 33 -1 7 -5 21 -9 30 -11 41 -7 63 -11 63 -13 0 -1 50 -4 110 -7 61
-3 115 -9 121 -14 11 -9 84 -19 179 -24 80 -4 184 -22 198 -34 7 -5 39 -12 72
-14 33 -3 83 -10 110 -16 47 -10 290 -31 365 -31 26 0 31 -3 20 -10 -13 -9
-13 -10 0 -9 8 0 36 4 63 8 35 6 47 5 47 -5 0 -6 7 -15 16 -18 23 -9 31 -7 14
4 -25 16 -7 18 64 6 38 -7 104 -12 146 -11 43 0 76 -3 73 -8 -2 -4 14 -5 36
-1 31 5 41 3 41 -7 0 -7 12 11 28 41 38 77 103 138 198 187 77 40 82 45 107
100 14 32 34 90 45 128 41 147 72 196 140 221 26 9 50 20 55 24 7 6 37 280 31
291 -2 3 -34 9 -71 13 -132 13 -211 42 -238 88 -24 42 -22 172 5 302 27 133
28 130 -25 144 -25 7 -45 16 -45 22 0 19 -46 9 -88 -20z m-72 -733 c16 -29 30
-61 30 -71 0 -18 -2 -18 -25 4 -14 13 -25 20 -25 16 0 -4 -6 -4 -12 1 -7 4
-17 8 -22 8 -5 0 -13 7 -18 15 -12 19 16 95 32 85 6 -4 24 -30 40 -58z m-2090
3 c-24 -15 -36 -11 -14 4 10 8 21 12 24 10 2 -3 -2 -9 -10 -14z m2080 -203 c0
-2 -12 -14 -27 -28 -20 -18 -24 -19 -13 -4 18 24 40 42 40 32z m-96 -92 c-10
-8 -23 -14 -29 -14 -5 0 -1 6 9 14 11 8 24 15 30 15 5 0 1 -7 -10 -15z m-34
-29 c0 -3 -4 -8 -10 -11 -5 -3 -10 -1 -10 4 0 6 5 11 10 11 6 0 10 -2 10 -4z
m-88 -52 c-24 -14 -46 -24 -48 -21 -5 5 65 45 81 46 6 1 -9 -11 -33 -25z m-67
-33 c-6 -5 -21 -12 -35 -15 l-25 -7 25 15 c28 17 50 21 35 7z"/>
<path d="M2530 1912 c0 -9 -7 -11 -20 -7 -13 4 -22 1 -26 -9 -3 -9 -10 -16
-14 -16 -5 0 -21 -5 -37 -12 -15 -6 -33 -10 -39 -10 -5 1 -20 -7 -32 -18 -12
-11 -27 -20 -34 -20 -7 0 11 -17 41 -38 112 -77 328 -242 388 -296 l61 -56 16
52 c8 29 18 78 22 108 4 30 11 60 16 67 6 7 4 13 -4 16 -11 4 -10 6 0 6 7 1
10 5 7 11 -3 5 2 21 12 36 9 15 18 33 19 41 3 21 -59 16 -89 -7 -54 -42 -154
-10 -207 67 -37 54 -80 99 -80 85z"/>
<path d="M1655 1250 c-3 -5 -2 -18 4 -27 7 -14 9 -12 8 10 -2 30 -3 31 -12 17z"/>
<path d="M4272 1234 c-7 -7 -16 -40 -20 -74 l-9 -60 31 24 c17 13 70 44 119
71 48 26 87 49 87 51 0 3 -9 0 -20 -6 -11 -6 -26 -8 -32 -4 -7 4 -8 3 -4 -4
11 -18 -5 -14 -26 5 -15 14 -19 14 -16 3 2 -12 -7 -15 -41 -13 -24 1 -47 6
-50 11 -3 6 -11 4 -19 -4z"/>
<path d="M1610 1150 c0 -5 5 -10 10 -10 6 0 10 5 10 10 0 6 -4 10 -10 10 -5 0
-10 -4 -10 -10z"/>
<path d="M5368 1139 c-23 -13 -23 -27 -2 -25 25 2 28 -21 5 -34 -14 -7 -21 -7
-21 0 0 5 5 10 10 10 19 0 10 16 -9 17 -25 2 -40 -38 -39 -102 1 -27 3 -38 5
-22 3 17 9 25 15 21 7 -5 9 -1 5 9 -3 10 -2 17 3 17 6 0 10 -6 10 -12 0 -9 3
-9 9 1 5 8 18 12 30 8 12 -3 19 -2 17 2 -7 10 31 41 49 41 15 0 85 39 85 47 0
3 -32 3 -71 1 -61 -5 -72 -3 -77 13 -5 13 -11 15 -24 8z"/>
<path d="M4230 1043 c0 -5 -12 -9 -27 -10 -79 -7 -123 -17 -135 -31 -11 -13
-10 -14 14 -9 17 5 30 3 35 -5 10 -17 133 -17 150 -1 7 6 11 18 8 25 -6 15
-45 42 -45 31z"/>
<path d="M4283 945 c0 -22 2 -30 4 -17 2 12 2 30 0 40 -3 9 -5 -1 -4 -23z"/>
<path d="M5328 949 c-3 -8 -2 -23 2 -34 7 -18 9 -18 15 -3 4 9 2 24 -3 33 -7
14 -10 14 -14 4z"/>
<path d="M5386 777 c3 -10 9 -15 12 -12 3 3 0 11 -7 18 -10 9 -11 8 -5 -6z"/>
<path d="M4845 761 c-11 -5 -50 -11 -88 -15 -37 -3 -78 -8 -91 -12 -18 -4 -25
-1 -29 13 -4 16 -5 16 -12 -3 -3 -11 -20 -28 -36 -38 -17 -10 -28 -21 -24 -24
3 -4 -11 -12 -32 -18 -32 -10 -34 -12 -13 -14 l25 -1 -24 -10 c-14 -5 -31 -7
-38 -5 -7 3 -17 -4 -23 -14 -13 -24 -33 -26 -54 -4 -15 14 -16 12 -18 -23 l-1
-38 -4 35 c-7 55 -23 61 -23 8 0 -58 -9 -86 -21 -66 -6 8 -9 -3 -9 -31 l0 -44
133 8 c72 4 260 11 417 15 157 3 266 7 244 8 -43 2 -77 25 -52 35 11 4 10 6 0
6 -7 1 -11 5 -8 10 3 5 -1 14 -9 21 -17 14 -20 40 -5 40 14 0 12 27 -2 33 -9
3 -5 11 10 22 l24 17 -24 12 c-15 8 -23 21 -23 36 0 23 -4 25 -35 21 -19 -1
-38 -8 -42 -14 -5 -8 -14 -5 -30 10 -29 26 -57 34 -83 24z"/>
<path d="M5379 628 c-4 -33 -7 -55 -14 -83 l-7 -30 15 27 c9 15 23 38 31 50
18 25 21 42 6 33 -5 -3 -10 -1 -10 4 0 15 -20 14 -21 -1z"/>
<path d="M4332 585 c0 -16 2 -22 5 -12 2 9 2 23 0 30 -3 6 -5 -1 -5 -18z"/>
<path d="M5098 523 c7 -3 16 -2 19 1 4 3 -2 6 -13 5 -11 0 -14 -3 -6 -6z"/>
</g>
</svg>
